<?xml version="1.0" encoding="utf-8"?>
<!-- Generator: Adobe Illustrator 18.0.0, SVG Export Plug-In . SVG Version: 6.00 Build 0)  -->
<!DOCTYPE svg PUBLIC "-//W3C//DTD SVG 1.1//EN" "http://www.w3.org/Graphics/SVG/1.1/DTD/svg11.dtd">
<svg version="1.1" id="Layer_1" xmlns="http://www.w3.org/2000/svg" xmlns:xlink="http://www.w3.org/1999/xlink" x="0px" y="0px"
	 viewBox="0 0 327.8 110.2" enable-background="new 0 0 327.8 110.2" xml:space="preserve">
<path fill="#FBE200" d="M291.7,19.4c-11,0-20.8,4.9-27.5,12.7v-8.4c0-2.4-1.9-4.3-4.3-4.3c0,0-0.1,0-0.1,0c0,0-0.1,0-0.1,0
	c-2.4,0-4.3,1.9-4.3,4.3v8.4c-6.6-7.8-16.5-12.7-27.5-12.7c-13.7,0-25.7,7.7-31.8,19c-6-11.6-18.1-19.5-32.1-19.5
	c-11,0-20.8,4.9-27.5,12.7V4.3c0-2.4-1.9-4.3-4.3-4.3s-4.3,1.9-4.3,4.3v27.9c-1.6-1.9-3.4-3.7-5.4-5.2c-1.9-1.5-4.6-1.2-6.1,0.7
	c-1.5,1.9-1.2,4.6,0.7,6.1c6.7,5.3,10.5,13.1,10.5,21.6c0,15.2-12.3,27.5-27.5,27.5S72.6,70.6,72.6,55.4c0-8.4,3.8-16.3,10.4-21.6
	c1.9-1.5,2.2-4.2,0.7-6.1c-1.5-1.9-4.2-2.2-6.1-0.7c-2,1.6-3.7,3.3-5.3,5.2v-8.5c0-2.4-1.9-4.3-4.3-4.3c-2.4,0-4.3,1.9-4.3,4.3v8.4
	C57,24.3,47.1,19.4,36.2,19.4C16.2,19.4,0,35.6,0,55.5c0,19.9,16.2,36.2,36.2,36.2c11,0,20.8-4.9,27.5-12.7v8.4
	c0,2.4,1.9,4.3,4.3,4.3c2.4,0,4.3-1.9,4.3-4.3v-8.8c5.8,6.9,14,11.6,23.4,12.7v14.6c0,2.4,1.9,4.3,4.3,4.3s4.3-1.9,4.3-4.3V91.3
	c12.1-1.4,22.3-8.9,27.7-19.2c6.1,11.3,18.1,19,31.8,19c13.7,0,25.7-7.7,31.8-19c6,11.6,18.1,19.5,32.1,19.5
	c11,0,20.8-4.9,27.5-12.7v8.4c0,2.4,1.9,4.3,4.3,4.3s4.3-1.9,4.3-4.3v-8.6c1.6,1.9,3.4,3.6,5.4,5.2c0.8,0.6,1.7,0.9,2.7,0.9
	c1.3,0,2.6-0.6,3.4-1.7c1.5-1.9,1.2-4.6-0.7-6.1c-6.7-5.3-10.5-13.1-10.5-21.6c0-15.2,12.3-27.5,27.5-27.5
	c15.2,0,27.5,12.3,27.5,27.5c0,8.4-3.8,16.3-10.4,21.6c-1.9,1.5-2.2,4.2-0.7,6.1c1.5,1.9,4.2,2.2,6.1,0.7
	c8.7-6.9,13.7-17.2,13.7-28.4C327.8,35.6,311.6,19.4,291.7,19.4z M36.2,83C21,83,8.7,70.7,8.7,55.5C8.7,40.4,21,28,36.2,28
	c15.2,0,27.5,12.3,27.5,27.5C63.6,70.7,51.3,83,36.2,83z M163.9,82.5c-15.2,0-27.5-12.3-27.5-27.5c0-15.2,12.3-27.5,27.5-27.5
	c15.2,0,27.5,12.3,27.5,27.5C191.4,70.2,179.1,82.5,163.9,82.5z M227.8,83c-15.2,0-27.5-12.3-27.5-27.5c0-15.2,12.3-27.5,27.5-27.5
	s27.5,12.3,27.5,27.5C255.3,70.7,242.9,83,227.8,83z"/>
</svg>
