<?xml version="1.0" encoding="utf-8"?>
<!-- Generator: Adobe Illustrator 18.0.0, SVG Export Plug-In . SVG Version: 6.00 Build 0)  -->
<!DOCTYPE svg PUBLIC "-//W3C//DTD SVG 1.1//EN" "http://www.w3.org/Graphics/SVG/1.1/DTD/svg11.dtd">
<svg version="1.1" id="Layer_1" xmlns="http://www.w3.org/2000/svg" xmlns:xlink="http://www.w3.org/1999/xlink" x="0px" y="0px"
	 viewBox="0 0 179.1 272" enable-background="new 0 0 179.1 272" xml:space="preserve">
<path fill="#FBE200" d="M168.3,46.7c-5.9,0-10.7,4.8-10.7,10.7v20.7c-16.4-19.2-40.8-31.5-68.1-31.5c-27.2,0-51.6,12.2-68.1,31.5
	V10.7C21.5,4.8,16.7,0,10.7,0S0,4.8,0,10.7v125.5c0,45.7,34.5,83.5,78.8,88.9v36.1c0,5.9,4.8,10.7,10.7,10.7s10.7-4.8,10.7-10.7
	v-36.1c22.9-2.7,43.1-14.1,57.3-30.8V215c0,5.9,4.8,10.7,10.7,10.7c5.9,0,10.7-4.8,10.7-10.7V57.4C179.1,51.5,174.3,46.7,168.3,46.7
	z M89.5,204.3c-37.5,0-68.1-30.5-68.1-68.1S52,68.1,89.5,68.1s68.1,30.5,68.1,68.1S127.1,204.3,89.5,204.3z"/>
</svg>
